<svg width="2021" height="1082" viewBox="0 0 2021 1082" fill="none" xmlns="http://www.w3.org/2000/svg">
<path opacity="0.08" d="M243.339 121.002H336.858M243.339 121.002C236.026 121.002 230.098 115.073 230.098 107.76V14.2416C230.098 6.92846 236.026 1 243.339 1H336.858C344.171 1 350.099 6.92845 350.099 14.2416M243.339 121.002C236.026 121.002 230.098 126.93 230.098 134.243V227.762C230.098 235.075 236.026 241.003 243.339 241.003M350.099 107.76V14.2416M350.099 107.76C350.099 115.073 344.171 121.002 336.858 121.002M350.099 107.76C350.099 115.073 356.028 121.002 363.341 121.002M336.858 121.002C344.171 121.002 350.099 126.93 350.099 134.243M350.099 14.2416C350.099 6.92845 356.028 1 363.341 1H456.859C464.173 1 470.101 6.92845 470.101 14.2416M363.341 121.002H456.859M363.341 121.002C356.028 121.002 350.099 126.93 350.099 134.243M470.101 107.76V14.2416M470.101 107.76C470.101 115.073 464.173 121.002 456.859 121.002M470.101 107.76C470.101 115.073 476.03 121.002 483.343 121.002M456.859 121.002C464.173 121.002 470.101 126.93 470.101 134.243M470.101 14.2416C470.101 6.92845 476.03 1 483.343 1H576.861C584.174 1 590.103 6.92845 590.103 14.2416M483.343 121.002H576.861M483.343 121.002C476.03 121.002 470.101 126.93 470.101 134.243M590.103 107.76V14.2416M590.103 107.76C590.103 115.073 584.174 121.002 576.861 121.002M590.103 107.76C590.103 115.073 596.031 121.002 603.344 121.002M576.861 121.002C584.174 121.002 590.103 126.93 590.103 134.243M590.103 14.2416C590.103 6.92845 596.031 1 603.344 1H696.863C704.176 1 710.104 6.92845 710.104 14.2416M603.344 121.002H696.863M603.344 121.002C596.031 121.002 590.103 126.93 590.103 134.243M710.104 107.76V14.2416M710.104 107.76C710.104 115.073 704.176 121.002 696.863 121.002M710.104 107.76C710.104 115.073 716.033 121.002 723.346 121.002M696.863 121.002C704.176 121.002 710.104 126.93 710.104 134.243M710.104 14.2416C710.104 6.92845 716.033 1.00002 723.346 1.00002H816.865C824.178 1.00002 830.106 6.92848 830.106 14.2416M723.346 121.002H816.865M723.346 121.002C716.033 121.002 710.104 126.93 710.104 134.243M830.106 107.76V14.2416M830.106 107.76C830.106 115.073 824.178 121.002 816.865 121.002M830.106 107.76C830.106 115.073 836.035 121.002 843.348 121.002M816.865 121.002C824.178 121.002 830.106 126.93 830.106 134.243M830.106 14.2416C830.106 6.92848 836.035 1.00002 843.348 1.00002H936.866C944.179 1.00002 950.108 6.92848 950.108 14.2416M843.348 121.002H936.866M843.348 121.002C836.035 121.002 830.106 126.93 830.106 134.243M950.108 107.76V14.2416M950.108 107.76C950.108 115.073 944.179 121.002 936.866 121.002M950.108 107.76C950.108 115.073 956.036 121.002 963.349 121.002M936.866 121.002C944.179 121.002 950.108 126.93 950.108 134.243M950.108 14.2416C950.108 6.92848 956.036 1.00002 963.349 1.00002H1056.87C1064.18 1.00002 1070.11 6.92848 1070.11 14.2416M963.349 121.002H1056.87M963.349 121.002C956.036 121.002 950.108 126.93 950.108 134.243M1070.11 107.76V14.2416M1070.11 107.76C1070.11 115.073 1064.18 121.002 1056.87 121.002M1070.11 107.76C1070.11 115.073 1076.04 121.002 1083.35 121.002M1056.87 121.002C1064.18 121.002 1070.11 126.93 1070.11 134.243M1070.11 14.2416C1070.11 6.92848 1076.04 1.00002 1083.35 1.00002H1176.87C1184.18 1.00002 1190.11 6.92848 1190.11 14.2416M1083.35 121.002H1176.87M1083.35 121.002C1076.04 121.002 1070.11 126.93 1070.11 134.243M1190.11 107.76V14.2416M1190.11 107.76C1190.11 115.073 1184.18 121.002 1176.87 121.002M1190.11 107.76C1190.11 115.073 1196.04 121.002 1203.35 121.002M1176.87 121.002C1184.18 121.002 1190.11 126.93 1190.11 134.243M1190.11 14.2416C1190.11 6.92848 1196.04 1 1203.35 1H1296.87C1304.18 1 1310.11 6.92845 1310.11 14.2416M1203.35 121.002H1296.87M1203.35 121.002C1196.04 121.002 1190.11 126.93 1190.11 134.243M1310.11 107.76V14.2416M1310.11 107.76C1310.11 115.073 1304.18 121.002 1296.87 121.002M1310.11 107.76C1310.11 115.073 1316.04 121.002 1323.35 121.002M1296.87 121.002C1304.18 121.002 1310.11 126.93 1310.11 134.243M1310.11 14.2416C1310.11 6.92845 1316.04 1 1323.35 1H1416.87C1424.19 1 1430.11 6.92845 1430.11 14.2416M1323.35 121.002H1416.87M1323.35 121.002C1316.04 121.002 1310.11 126.93 1310.11 134.243M1430.11 107.76V14.2416M1430.11 107.76C1430.11 115.073 1424.19 121.002 1416.87 121.002M1430.11 107.76C1430.11 115.073 1436.04 121.002 1443.36 121.002M1416.87 121.002C1424.19 121.002 1430.11 126.93 1430.11 134.243M1430.11 14.2416C1430.11 6.92845 1436.04 1 1443.36 1H1536.87C1544.19 1 1550.12 6.92845 1550.12 14.2416M1443.36 121.002H1536.87M1443.36 121.002C1436.04 121.002 1430.11 126.93 1430.11 134.243M1550.12 107.76V14.2416M1550.12 107.76C1550.12 115.073 1544.19 121.002 1536.87 121.002M1550.12 107.76C1550.12 115.073 1556.04 121.002 1563.36 121.002M1536.87 121.002C1544.19 121.002 1550.12 126.93 1550.12 134.243M1550.12 14.2416C1550.12 6.92845 1556.04 1 1563.36 1H1656.88C1664.19 1 1670.12 6.92845 1670.12 14.2416V107.76C1670.12 115.073 1664.19 121.002 1656.88 121.002M1563.36 121.002H1656.88M1563.36 121.002C1556.04 121.002 1550.12 126.93 1550.12 134.243M1656.88 121.002C1664.19 121.002 1670.12 126.93 1670.12 134.243V227.762C1670.12 235.075 1664.19 241.003 1656.88 241.003M243.339 241.003H336.858M243.339 241.003C236.026 241.003 230.098 246.932 230.098 254.245V347.764C230.098 355.077 236.026 361.005 243.339 361.005M350.099 227.762V134.243M350.099 227.762C350.099 235.075 344.171 241.003 336.858 241.003M350.099 227.762C350.099 235.075 356.028 241.003 363.341 241.003M336.858 241.003C344.171 241.003 350.099 246.932 350.099 254.245M363.341 241.003H456.859M363.341 241.003C356.028 241.003 350.099 246.932 350.099 254.245M470.101 227.762V134.243M470.101 227.762C470.101 235.075 464.173 241.003 456.859 241.003M470.101 227.762C470.101 235.075 476.03 241.003 483.343 241.003M456.859 241.003C464.173 241.003 470.101 246.932 470.101 254.245M483.343 241.003H576.861M483.343 241.003C476.03 241.003 470.101 246.932 470.101 254.245M590.103 227.762V134.243M590.103 227.762C590.103 235.075 584.174 241.003 576.861 241.003M590.103 227.762C590.103 235.075 596.031 241.003 603.344 241.003M576.861 241.003C584.174 241.003 590.103 246.932 590.103 254.245M603.344 241.003H696.863M603.344 241.003C596.031 241.003 590.103 246.932 590.103 254.245M710.104 227.762V134.243M710.104 227.762C710.104 235.075 704.176 241.003 696.863 241.003M710.104 227.762C710.104 235.075 716.033 241.003 723.346 241.003M696.863 241.003C704.176 241.003 710.104 246.932 710.104 254.245M723.346 241.003H816.865M723.346 241.003C716.033 241.003 710.104 246.932 710.104 254.245M830.106 227.762V134.243M830.106 227.762C830.106 235.075 824.178 241.003 816.865 241.003M830.106 227.762C830.106 235.075 836.035 241.003 843.348 241.003M816.865 241.003C824.178 241.003 830.106 246.932 830.106 254.245M843.348 241.003H936.866M843.348 241.003C836.035 241.003 830.106 246.932 830.106 254.245M950.108 227.762V134.243M950.108 227.762C950.108 235.075 944.179 241.003 936.866 241.003M950.108 227.762C950.108 235.075 956.036 241.003 963.349 241.003M936.866 241.003C944.179 241.003 950.108 246.932 950.108 254.245M963.349 241.003H1056.87M963.349 241.003C956.036 241.003 950.108 246.932 950.108 254.245M1070.11 227.762V134.243M1070.11 227.762C1070.11 235.075 1064.18 241.003 1056.87 241.003M1070.11 227.762C1070.11 235.075 1076.04 241.003 1083.35 241.003M1056.87 241.003C1064.18 241.003 1070.11 246.932 1070.11 254.245M1083.35 241.003H1176.87M1083.35 241.003C1076.04 241.003 1070.11 246.932 1070.11 254.245M1190.11 227.762V134.243M1190.11 227.762C1190.11 235.075 1184.18 241.003 1176.87 241.003M1190.11 227.762C1190.11 235.075 1196.04 241.003 1203.35 241.003M1176.87 241.003C1184.18 241.003 1190.11 246.932 1190.11 254.245M1203.35 241.003H1296.87M1203.35 241.003C1196.04 241.003 1190.11 246.932 1190.11 254.245M1310.11 227.762V134.243M1310.11 227.762C1310.11 235.075 1304.18 241.003 1296.87 241.003M1310.11 227.762C1310.11 235.075 1316.04 241.003 1323.35 241.003M1296.87 241.003C1304.18 241.003 1310.11 246.932 1310.11 254.245M1323.35 241.003H1416.87M1323.35 241.003C1316.04 241.003 1310.11 246.932 1310.11 254.245M1430.11 227.762V134.243M1430.11 227.762C1430.11 235.075 1424.19 241.003 1416.87 241.003M1430.11 227.762C1430.11 235.075 1436.04 241.003 1443.36 241.003M1416.87 241.003C1424.19 241.003 1430.11 246.932 1430.11 254.245M1443.36 241.003H1536.87M1443.36 241.003C1436.04 241.003 1430.11 246.932 1430.11 254.245M1550.12 227.762V134.243M1550.12 227.762C1550.12 235.075 1544.19 241.003 1536.87 241.003M1550.12 227.762C1550.12 235.075 1556.04 241.003 1563.36 241.003M1536.87 241.003C1544.19 241.003 1550.12 246.932 1550.12 254.245M1563.36 241.003H1656.88M1563.36 241.003C1556.04 241.003 1550.12 246.932 1550.12 254.245M1656.88 241.003C1664.19 241.003 1670.12 246.932 1670.12 254.245V347.764C1670.12 355.077 1664.19 361.005 1656.88 361.005M243.339 361.005H336.858M243.339 361.005C236.026 361.005 230.098 366.934 230.098 374.247V467.765C230.098 475.078 236.026 481.007 243.339 481.007M350.099 347.764V254.245M350.099 347.764C350.099 355.077 344.171 361.005 336.858 361.005M350.099 347.764C350.099 355.077 356.028 361.005 363.341 361.005M336.858 361.005C344.171 361.005 350.099 366.934 350.099 374.247M363.341 361.005H456.859M363.341 361.005C356.028 361.005 350.099 366.934 350.099 374.247M470.101 347.764V254.245M470.101 347.764C470.101 355.077 464.173 361.005 456.859 361.005M470.101 347.764C470.101 355.077 476.03 361.005 483.343 361.005M456.859 361.005C464.173 361.005 470.101 366.934 470.101 374.247M483.343 361.005H576.861M483.343 361.005C476.03 361.005 470.101 366.934 470.101 374.247M590.103 347.764V254.245M590.103 347.764C590.103 355.077 584.174 361.005 576.861 361.005M590.103 347.764C590.103 355.077 596.031 361.005 603.344 361.005M576.861 361.005C584.174 361.005 590.103 366.934 590.103 374.247M603.344 361.005H696.863M603.344 361.005C596.031 361.005 590.103 366.934 590.103 374.247M710.104 347.764V254.245M710.104 347.764C710.104 355.077 704.176 361.005 696.863 361.005M710.104 347.764C710.104 355.077 716.033 361.005 723.346 361.005M696.863 361.005C704.176 361.005 710.104 366.934 710.104 374.247M723.346 361.005H816.865M723.346 361.005C716.033 361.005 710.104 366.934 710.104 374.247M830.106 347.764V254.245M830.106 347.764C830.106 355.077 824.178 361.005 816.865 361.005M830.106 347.764C830.106 355.077 836.035 361.005 843.348 361.005M816.865 361.005C824.178 361.005 830.106 366.933 830.106 374.246M843.348 361.005H936.866M843.348 361.005C836.035 361.005 830.106 366.933 830.106 374.246M950.108 347.764V254.245M950.108 347.764C950.108 355.077 944.179 361.005 936.866 361.005M950.108 347.764C950.108 355.077 956.036 361.005 963.349 361.005M936.866 361.005C944.179 361.005 950.108 366.933 950.108 374.246M963.349 361.005H1056.87M963.349 361.005C956.036 361.005 950.108 366.933 950.108 374.246M1070.11 347.764V254.245M1070.11 347.764C1070.11 355.077 1064.18 361.005 1056.87 361.005M1070.11 347.764C1070.11 355.077 1076.04 361.005 1083.35 361.005M1056.87 361.005C1064.18 361.005 1070.11 366.933 1070.11 374.246M1083.35 361.005H1176.87M1083.35 361.005C1076.04 361.005 1070.11 366.933 1070.11 374.246M1190.11 347.764V254.245M1190.11 347.764C1190.11 355.077 1184.18 361.005 1176.87 361.005M1190.11 347.764C1190.11 355.077 1196.04 361.005 1203.35 361.005M1176.87 361.005C1184.18 361.005 1190.11 366.933 1190.11 374.246M1203.35 361.005H1296.87M1203.35 361.005C1196.04 361.005 1190.11 366.933 1190.11 374.246M1310.11 347.764V254.245M1310.11 347.764C1310.11 355.077 1304.18 361.005 1296.87 361.005M1310.11 347.764C1310.11 355.077 1316.04 361.005 1323.35 361.005M1296.87 361.005C1304.18 361.005 1310.11 366.934 1310.11 374.247M1323.35 361.005H1416.87M1323.35 361.005C1316.04 361.005 1310.11 366.934 1310.11 374.247M1430.11 347.764V254.245M1430.11 347.764C1430.11 355.077 1424.19 361.005 1416.87 361.005M1430.11 347.764C1430.11 355.077 1436.04 361.005 1443.36 361.005M1416.87 361.005C1424.19 361.005 1430.11 366.934 1430.11 374.247M1443.36 361.005H1536.87M1443.36 361.005C1436.04 361.005 1430.11 366.934 1430.11 374.247M1550.12 347.764V254.245M1550.12 347.764C1550.12 355.077 1544.19 361.005 1536.87 361.005M1550.12 347.764C1550.12 355.077 1556.04 361.005 1563.36 361.005M1536.87 361.005C1544.19 361.005 1550.12 366.934 1550.12 374.247M1563.36 361.005H1656.88M1563.36 361.005C1556.04 361.005 1550.12 366.934 1550.12 374.247M1656.88 361.005C1664.19 361.005 1670.12 366.934 1670.12 374.247V467.765C1670.12 475.078 1664.19 481.007 1656.88 481.007M243.339 481.007H336.858M243.339 481.007C236.026 481.007 230.098 486.935 230.098 494.248V587.767C230.098 595.08 236.026 601.008 243.339 601.008M350.099 467.765V374.247M350.099 467.765C350.099 475.078 344.171 481.007 336.858 481.007M350.099 467.765C350.099 475.078 356.028 481.007 363.341 481.007M336.858 481.007C344.171 481.007 350.099 486.935 350.099 494.248M363.341 481.007H456.859M363.341 481.007C356.028 481.007 350.099 486.935 350.099 494.248M470.101 467.765V374.247M470.101 467.765C470.101 475.078 464.173 481.007 456.859 481.007M470.101 467.765C470.101 475.078 476.03 481.007 483.343 481.007M456.859 481.007C464.173 481.007 470.101 486.935 470.101 494.248M483.343 481.007H576.861M483.343 481.007C476.03 481.007 470.101 486.935 470.101 494.248M590.103 467.765V374.247M590.103 467.765C590.103 475.078 584.174 481.007 576.861 481.007M590.103 467.765C590.103 475.078 596.031 481.007 603.344 481.007M576.861 481.007C584.174 481.007 590.103 486.935 590.103 494.248M603.344 481.007H696.863M603.344 481.007C596.031 481.007 590.103 486.935 590.103 494.248M710.104 467.765V374.247M710.104 467.765C710.104 475.078 704.176 481.007 696.863 481.007M710.104 467.765C710.104 475.078 716.033 481.007 723.346 481.007M696.863 481.007C704.176 481.007 710.104 486.935 710.104 494.248M723.346 481.007H816.865M723.346 481.007C716.033 481.007 710.104 486.935 710.104 494.248M830.106 467.765V374.246M830.106 467.765C830.106 475.078 824.178 481.007 816.865 481.007M830.106 467.765C830.106 475.078 836.035 481.007 843.348 481.007M816.865 481.007C824.178 481.007 830.106 486.935 830.106 494.248M843.348 481.007H936.866M843.348 481.007C836.035 481.007 830.106 486.935 830.106 494.248M950.108 467.765V374.246M950.108 467.765C950.108 475.078 944.179 481.007 936.866 481.007M950.108 467.765C950.108 475.078 956.036 481.007 963.349 481.007M936.866 481.007C944.179 481.007 950.108 486.935 950.108 494.248M963.349 481.007H1056.87M963.349 481.007C956.036 481.007 950.108 486.935 950.108 494.248M1070.11 467.765V374.246M1070.11 467.765C1070.11 475.078 1064.18 481.007 1056.87 481.007M1070.11 467.765C1070.11 475.078 1076.04 481.007 1083.35 481.007M1056.87 481.007C1064.18 481.007 1070.11 486.935 1070.11 494.248M1083.35 481.007H1176.87M1083.35 481.007C1076.04 481.007 1070.11 486.935 1070.11 494.248M1190.11 467.765V374.246M1190.11 467.765C1190.11 475.078 1184.18 481.007 1176.87 481.007M1190.11 467.765C1190.11 475.078 1196.04 481.007 1203.35 481.007M1176.87 481.007C1184.18 481.007 1190.11 486.935 1190.11 494.248M1203.35 481.007H1296.87M1203.35 481.007C1196.04 481.007 1190.11 486.935 1190.11 494.248M1310.11 467.765V374.247M1310.11 467.765C1310.11 475.078 1304.18 481.007 1296.87 481.007M1310.11 467.765C1310.11 475.078 1316.04 481.007 1323.35 481.007M1296.87 481.007C1304.18 481.007 1310.11 486.935 1310.11 494.248M1323.35 481.007H1416.87M1323.35 481.007C1316.04 481.007 1310.11 486.935 1310.11 494.248M1430.11 467.765V374.247M1430.11 467.765C1430.11 475.078 1424.19 481.007 1416.87 481.007M1430.11 467.765C1430.11 475.078 1436.04 481.007 1443.36 481.007M1416.87 481.007C1424.19 481.007 1430.11 486.935 1430.11 494.248M1443.36 481.007H1536.87M1443.36 481.007C1436.04 481.007 1430.11 486.935 1430.11 494.248M1550.12 467.765V374.247M1550.12 467.765C1550.12 475.078 1544.19 481.007 1536.87 481.007M1550.12 467.765C1550.12 475.078 1556.04 481.007 1563.36 481.007M1536.87 481.007C1544.19 481.007 1550.12 486.935 1550.12 494.248M1563.36 481.007H1656.88M1563.36 481.007C1556.04 481.007 1550.12 486.935 1550.12 494.248M1656.88 481.007C1664.19 481.007 1670.12 486.935 1670.12 494.248V587.767C1670.12 595.08 1664.19 601.008 1656.88 601.008M243.339 601.008H336.858M243.339 601.008C236.026 601.008 230.098 606.937 230.098 614.25V707.769C230.098 715.082 236.026 721.01 243.339 721.01M350.099 587.767V494.248M350.099 587.767C350.099 595.08 344.171 601.008 336.858 601.008M350.099 587.767C350.099 595.08 356.028 601.008 363.341 601.008M336.858 601.008C344.171 601.008 350.099 606.937 350.099 614.25M363.341 601.008H456.859M363.341 601.008C356.028 601.008 350.099 606.937 350.099 614.25M470.101 587.767V494.248M470.101 587.767C470.101 595.08 464.173 601.008 456.859 601.008M470.101 587.767C470.101 595.08 476.03 601.008 483.343 601.008M456.859 601.008C464.173 601.008 470.101 606.937 470.101 614.25M483.343 601.008H576.861M483.343 601.008C476.03 601.008 470.101 606.937 470.101 614.25M590.103 587.767V494.248M590.103 587.767C590.103 595.08 584.174 601.008 576.861 601.008M590.103 587.767C590.103 595.08 596.031 601.008 603.344 601.008M576.861 601.008C584.174 601.008 590.103 606.937 590.103 614.25M603.344 601.008H696.863M603.344 601.008C596.031 601.008 590.103 606.937 590.103 614.25M710.104 587.767V494.248M710.104 587.767C710.104 595.08 704.176 601.008 696.863 601.008M710.104 587.767C710.104 595.08 716.033 601.008 723.346 601.008M696.863 601.008C704.176 601.008 710.104 606.937 710.104 614.25M723.346 601.008H816.865M723.346 601.008C716.033 601.008 710.104 606.937 710.104 614.25M830.106 587.767V494.248M830.106 587.767C830.106 595.08 824.178 601.008 816.865 601.008M830.106 587.767C830.106 595.08 836.035 601.008 843.348 601.008M816.865 601.008C824.178 601.008 830.106 606.937 830.106 614.25M843.348 601.008H936.866M843.348 601.008C836.035 601.008 830.106 606.937 830.106 614.25M950.108 587.767V494.248M950.108 587.767C950.108 595.08 944.179 601.008 936.866 601.008M950.108 587.767C950.108 595.08 956.036 601.008 963.349 601.008M936.866 601.008C944.179 601.008 950.108 606.937 950.108 614.25M963.349 601.008H1056.87M963.349 601.008C956.036 601.008 950.108 606.937 950.108 614.25M1070.11 587.767V494.248M1070.11 587.767C1070.11 595.08 1064.18 601.008 1056.87 601.008M1070.11 587.767C1070.11 595.08 1076.04 601.008 1083.35 601.008M1056.87 601.008C1064.18 601.008 1070.11 606.937 1070.11 614.25M1083.35 601.008H1176.87M1083.35 601.008C1076.04 601.008 1070.11 606.937 1070.11 614.25M1190.11 587.767V494.248M1190.11 587.767C1190.11 595.08 1184.18 601.008 1176.87 601.008M1190.11 587.767C1190.11 595.08 1196.04 601.008 1203.35 601.008M1176.87 601.008C1184.18 601.008 1190.11 606.937 1190.11 614.25M1203.35 601.008H1296.87M1203.35 601.008C1196.04 601.008 1190.11 606.937 1190.11 614.25M1310.11 587.767V494.248M1310.11 587.767C1310.11 595.08 1304.18 601.008 1296.87 601.008M1310.11 587.767C1310.11 595.08 1316.04 601.008 1323.35 601.008M1296.87 601.008C1304.18 601.008 1310.11 606.937 1310.11 614.25M1323.35 601.008H1416.87M1323.35 601.008C1316.04 601.008 1310.11 606.937 1310.11 614.25M1430.11 587.767V494.248M1430.11 587.767C1430.11 595.08 1424.19 601.008 1416.87 601.008M1430.11 587.767C1430.11 595.08 1436.04 601.008 1443.36 601.008M1416.87 601.008C1424.19 601.008 1430.11 606.937 1430.11 614.25M1443.36 601.008H1536.87M1443.36 601.008C1436.04 601.008 1430.11 606.937 1430.11 614.25M1550.12 587.767V494.248M1550.12 587.767C1550.12 595.08 1544.19 601.008 1536.87 601.008M1550.12 587.767C1550.12 595.08 1556.04 601.008 1563.36 601.008M1536.87 601.008C1544.19 601.008 1550.12 606.937 1550.12 614.25M1563.36 601.008H1656.88M1563.36 601.008C1556.04 601.008 1550.12 606.937 1550.12 614.25M1656.88 601.008C1664.19 601.008 1670.12 606.937 1670.12 614.25V707.769C1670.12 715.082 1664.19 721.01 1656.88 721.01M243.339 721.01H336.858M243.339 721.01C236.026 721.01 230.098 726.939 230.098 734.252V827.77C230.098 835.083 236.026 841.012 243.339 841.012M350.099 707.769V614.25M350.099 707.769C350.099 715.082 344.171 721.01 336.858 721.01M350.099 707.769C350.099 715.082 356.028 721.01 363.341 721.01M336.858 721.01C344.171 721.01 350.099 726.939 350.099 734.252M363.341 721.01H456.859M363.341 721.01C356.028 721.01 350.099 726.939 350.099 734.252M470.101 707.769V614.25M470.101 707.769C470.101 715.082 464.173 721.01 456.859 721.01M470.101 707.769C470.101 715.082 476.03 721.01 483.343 721.01M456.859 721.01C464.173 721.01 470.101 726.939 470.101 734.252M483.343 721.01H576.861M483.343 721.01C476.03 721.01 470.101 726.939 470.101 734.252M590.103 707.769V614.25M590.103 707.769C590.103 715.082 584.174 721.01 576.861 721.01M590.103 707.769C590.103 715.082 596.031 721.01 603.344 721.01M576.861 721.01C584.174 721.01 590.103 726.939 590.103 734.252M603.344 721.01H696.863M603.344 721.01C596.031 721.01 590.103 726.939 590.103 734.252M710.104 707.769V614.25M710.104 707.769C710.104 715.082 704.176 721.01 696.863 721.01M710.104 707.769C710.104 715.082 716.033 721.01 723.346 721.01M696.863 721.01C704.176 721.01 710.104 726.939 710.104 734.252M723.346 721.01H816.865M723.346 721.01C716.033 721.01 710.104 726.939 710.104 734.252M830.106 707.769V614.25M830.106 707.769C830.106 715.082 824.178 721.01 816.865 721.01M830.106 707.769C830.106 715.082 836.035 721.01 843.348 721.01M816.865 721.01C824.178 721.01 830.106 726.939 830.106 734.252M843.348 721.01H936.866M843.348 721.01C836.035 721.01 830.106 726.939 830.106 734.252M950.108 707.769V614.25M950.108 707.769C950.108 715.082 944.179 721.01 936.866 721.01M950.108 707.769C950.108 715.082 956.036 721.01 963.349 721.01M936.866 721.01C944.179 721.01 950.108 726.939 950.108 734.252M963.349 721.01H1056.87M963.349 721.01C956.036 721.01 950.108 726.939 950.108 734.252M1070.11 707.769V614.25M1070.11 707.769C1070.11 715.082 1064.18 721.01 1056.87 721.01M1070.11 707.769C1070.11 715.082 1076.04 721.01 1083.35 721.01M1056.87 721.01C1064.18 721.01 1070.11 726.939 1070.11 734.252M1083.35 721.01H1176.87M1083.35 721.01C1076.04 721.01 1070.11 726.939 1070.11 734.252M1190.11 707.769V614.25M1190.11 707.769C1190.11 715.082 1184.18 721.01 1176.87 721.01M1190.11 707.769C1190.11 715.082 1196.04 721.01 1203.35 721.01M1176.87 721.01C1184.18 721.01 1190.11 726.939 1190.11 734.252M1203.35 721.01H1296.87M1203.35 721.01C1196.04 721.01 1190.11 726.939 1190.11 734.252M1310.11 707.769V614.25M1310.11 707.769C1310.11 715.082 1304.18 721.01 1296.87 721.01M1310.11 707.769C1310.11 715.082 1316.04 721.01 1323.35 721.01M1296.87 721.01C1304.18 721.01 1310.11 726.939 1310.11 734.252M1323.35 721.01H1416.87M1323.35 721.01C1316.04 721.01 1310.11 726.939 1310.11 734.252M1430.11 707.769V614.25M1430.11 707.769C1430.11 715.082 1424.19 721.01 1416.87 721.01M1430.11 707.769C1430.11 715.082 1436.04 721.01 1443.36 721.01M1416.87 721.01C1424.19 721.01 1430.11 726.939 1430.11 734.252M1443.36 721.01H1536.87M1443.36 721.01C1436.04 721.01 1430.11 726.939 1430.11 734.252M1550.12 707.769V614.25M1550.12 707.769C1550.12 715.082 1544.19 721.01 1536.87 721.01M1550.12 707.769C1550.12 715.082 1556.04 721.01 1563.36 721.01M1536.87 721.01C1544.19 721.01 1550.12 726.939 1550.12 734.252M1563.36 721.01H1656.88M1563.36 721.01C1556.04 721.01 1550.12 726.939 1550.12 734.252M1656.88 721.01C1664.19 721.01 1670.12 726.939 1670.12 734.252V827.77C1670.12 835.083 1664.19 841.012 1656.88 841.012M243.339 841.012H336.858M243.339 841.012C236.026 841.012 230.098 846.94 230.098 854.254V947.772C230.098 955.085 236.026 961.014 243.339 961.014M350.099 827.77V734.252M350.099 827.77C350.099 835.083 344.171 841.012 336.858 841.012M350.099 827.77C350.099 835.083 356.028 841.012 363.341 841.012M336.858 841.012C344.171 841.012 350.099 846.94 350.099 854.254M363.341 841.012H456.859M363.341 841.012C356.028 841.012 350.099 846.94 350.099 854.254M470.101 827.77V734.252M470.101 827.77C470.101 835.083 464.173 841.012 456.859 841.012M470.101 827.77C470.101 835.083 476.03 841.012 483.343 841.012M456.859 841.012C464.173 841.012 470.101 846.94 470.101 854.254M483.343 841.012H576.861M483.343 841.012C476.03 841.012 470.101 846.94 470.101 854.254M590.103 827.77V734.252M590.103 827.77C590.103 835.083 584.174 841.012 576.861 841.012M590.103 827.77C590.103 835.083 596.031 841.012 603.344 841.012M576.861 841.012C584.174 841.012 590.103 846.94 590.103 854.254M603.344 841.012H696.863M603.344 841.012C596.031 841.012 590.103 846.94 590.103 854.254M710.104 827.77V734.252M710.104 827.77C710.104 835.083 704.176 841.012 696.863 841.012M710.104 827.77C710.104 835.083 716.033 841.012 723.346 841.012M696.863 841.012C704.176 841.012 710.104 846.94 710.104 854.254M723.346 841.012H816.865M723.346 841.012C716.033 841.012 710.104 846.94 710.104 854.254M830.106 827.77V734.252M830.106 827.77C830.106 835.083 824.178 841.012 816.865 841.012M830.106 827.77C830.106 835.083 836.035 841.012 843.348 841.012M816.865 841.012C824.178 841.012 830.106 846.941 830.106 854.254M843.348 841.012H936.866M843.348 841.012C836.035 841.012 830.106 846.941 830.106 854.254M950.108 827.77V734.252M950.108 827.77C950.108 835.083 944.179 841.012 936.866 841.012M950.108 827.77C950.108 835.083 956.036 841.012 963.349 841.012M936.866 841.012C944.179 841.012 950.108 846.941 950.108 854.254M963.349 841.012H1056.87M963.349 841.012C956.036 841.012 950.108 846.941 950.108 854.254M1070.11 827.77V734.252M1070.11 827.77C1070.11 835.083 1064.18 841.012 1056.87 841.012M1070.11 827.77C1070.11 835.083 1076.04 841.012 1083.35 841.012M1056.87 841.012C1064.18 841.012 1070.11 846.941 1070.11 854.254M1083.35 841.012H1176.87M1083.35 841.012C1076.04 841.012 1070.11 846.941 1070.11 854.254M1190.11 827.77V734.252M1190.11 827.77C1190.11 835.083 1184.18 841.012 1176.87 841.012M1190.11 827.77C1190.11 835.083 1196.04 841.012 1203.35 841.012M1176.87 841.012C1184.18 841.012 1190.11 846.941 1190.11 854.254M1203.35 841.012H1296.87M1203.35 841.012C1196.04 841.012 1190.11 846.941 1190.11 854.254M1310.11 827.77V734.252M1310.11 827.77C1310.11 835.083 1304.18 841.012 1296.87 841.012M1310.11 827.77C1310.11 835.083 1316.04 841.012 1323.35 841.012M1296.87 841.012C1304.18 841.012 1310.11 846.94 1310.11 854.254M1323.35 841.012H1416.87M1323.35 841.012C1316.04 841.012 1310.11 846.94 1310.11 854.254M1430.11 827.77V734.252M1430.11 827.77C1430.11 835.083 1424.19 841.012 1416.87 841.012M1430.11 827.77C1430.11 835.083 1436.04 841.012 1443.36 841.012M1416.87 841.012C1424.19 841.012 1430.11 846.94 1430.11 854.254M1443.36 841.012H1536.87M1443.36 841.012C1436.04 841.012 1430.11 846.94 1430.11 854.254M1550.12 827.77V734.252M1550.12 827.77C1550.12 835.083 1544.19 841.012 1536.87 841.012M1550.12 827.77C1550.12 835.083 1556.04 841.012 1563.36 841.012M1536.87 841.012C1544.19 841.012 1550.12 846.94 1550.12 854.254M1563.36 841.012H1656.88M1563.36 841.012C1556.04 841.012 1550.12 846.94 1550.12 854.254M1656.88 841.012C1664.19 841.012 1670.12 846.94 1670.12 854.254V947.772C1670.12 955.085 1664.19 961.014 1656.88 961.014M243.339 961.014H336.858M243.339 961.014C236.026 961.014 230.098 966.942 230.098 974.255V1067.77C230.098 1075.09 236.026 1081.02 243.339 1081.02H336.858C344.171 1081.02 350.099 1075.09 350.099 1067.77M350.099 947.772V854.254M350.099 947.772C350.099 955.085 344.171 961.014 336.858 961.014M350.099 947.772C350.099 955.085 356.028 961.014 363.341 961.014M336.858 961.014C344.171 961.014 350.099 966.942 350.099 974.255M363.341 961.014H456.859M363.341 961.014C356.028 961.014 350.099 966.942 350.099 974.255M470.101 947.772V854.254M470.101 947.772C470.101 955.085 464.173 961.014 456.859 961.014M470.101 947.772C470.101 955.085 476.03 961.014 483.343 961.014M456.859 961.014C464.173 961.014 470.101 966.942 470.101 974.255M483.343 961.014H576.861M483.343 961.014C476.03 961.014 470.101 966.942 470.101 974.255M590.103 947.772V854.254M590.103 947.772C590.103 955.085 584.174 961.014 576.861 961.014M590.103 947.772C590.103 955.085 596.031 961.014 603.344 961.014M576.861 961.014C584.174 961.014 590.103 966.942 590.103 974.255M603.344 961.014H696.863M603.344 961.014C596.031 961.014 590.103 966.942 590.103 974.255M710.104 947.772V854.254M710.104 947.772C710.104 955.085 704.176 961.014 696.863 961.014M710.104 947.772C710.104 955.085 716.033 961.014 723.346 961.014M696.863 961.014C704.176 961.014 710.104 966.942 710.104 974.255M723.346 961.014H816.865M723.346 961.014C716.033 961.014 710.104 966.942 710.104 974.255M830.106 947.772V854.254M830.106 947.772C830.106 955.085 824.178 961.014 816.865 961.014M830.106 947.772C830.106 955.085 836.035 961.014 843.348 961.014M816.865 961.014C824.178 961.014 830.106 966.942 830.106 974.255M843.348 961.014H936.866M843.348 961.014C836.035 961.014 830.106 966.942 830.106 974.255M950.108 947.772V854.254M950.108 947.772C950.108 955.085 944.179 961.014 936.866 961.014M950.108 947.772C950.108 955.085 956.036 961.014 963.349 961.014M936.866 961.014C944.179 961.014 950.108 966.942 950.108 974.255M963.349 961.014H1056.87M963.349 961.014C956.036 961.014 950.108 966.942 950.108 974.255M1070.11 947.772V854.254M1070.11 947.772C1070.11 955.085 1064.18 961.014 1056.87 961.014M1070.11 947.772C1070.11 955.085 1076.04 961.014 1083.35 961.014M1056.87 961.014C1064.18 961.014 1070.11 966.942 1070.11 974.255M1083.35 961.014H1176.87M1083.35 961.014C1076.04 961.014 1070.11 966.942 1070.11 974.255M1190.11 947.772V854.254M1190.11 947.772C1190.11 955.085 1184.18 961.014 1176.87 961.014M1190.11 947.772C1190.11 955.085 1196.04 961.014 1203.35 961.014M1176.87 961.014C1184.18 961.014 1190.11 966.942 1190.11 974.255M1203.35 961.014H1296.87M1203.35 961.014C1196.04 961.014 1190.11 966.942 1190.11 974.255M1310.11 947.772V854.254M1310.11 947.772C1310.11 955.085 1304.18 961.014 1296.87 961.014M1310.11 947.772C1310.11 955.085 1316.04 961.014 1323.35 961.014M1296.87 961.014C1304.18 961.014 1310.11 966.942 1310.11 974.255M1323.35 961.014H1416.87M1323.35 961.014C1316.04 961.014 1310.11 966.942 1310.11 974.255M1430.11 947.772V854.254M1430.11 947.772C1430.11 955.085 1424.19 961.014 1416.87 961.014M1430.11 947.772C1430.11 955.085 1436.04 961.014 1443.36 961.014M1416.87 961.014C1424.19 961.014 1430.11 966.942 1430.11 974.255M1443.36 961.014H1536.87M1443.36 961.014C1436.04 961.014 1430.11 966.942 1430.11 974.255M1550.12 947.772V854.254M1550.12 947.772C1550.12 955.085 1544.19 961.014 1536.87 961.014M1550.12 947.772C1550.12 955.085 1556.04 961.014 1563.36 961.014M1536.87 961.014C1544.19 961.014 1550.12 966.942 1550.12 974.255M1563.36 961.014H1656.88M1563.36 961.014C1556.04 961.014 1550.12 966.942 1550.12 974.255M1656.88 961.014C1664.19 961.014 1670.12 966.942 1670.12 974.255V1067.77C1670.12 1075.09 1664.19 1081.02 1656.88 1081.02H1563.36C1556.04 1081.02 1550.12 1075.09 1550.12 1067.77M350.099 1067.77V974.255M350.099 1067.77C350.099 1075.09 356.028 1081.02 363.341 1081.02H456.859C464.173 1081.02 470.101 1075.09 470.101 1067.77M470.101 1067.77V974.255M470.101 1067.77C470.101 1075.09 476.03 1081.02 483.343 1081.02H576.861C584.174 1081.02 590.103 1075.09 590.103 1067.77M590.103 1067.77V974.255M590.103 1067.77C590.103 1075.09 596.031 1081.02 603.344 1081.02H696.863C704.176 1081.02 710.104 1075.09 710.104 1067.77M710.104 1067.77V974.255M710.104 1067.77C710.104 1075.09 716.033 1081.02 723.346 1081.02H816.865C824.178 1081.02 830.106 1075.09 830.106 1067.77M830.106 1067.77V974.255M830.106 1067.77C830.106 1075.09 836.035 1081.02 843.348 1081.02H936.866C944.179 1081.02 950.108 1075.09 950.108 1067.77M950.108 1067.77V974.255M950.108 1067.77C950.108 1075.09 956.036 1081.02 963.349 1081.02H1056.87C1064.18 1081.02 1070.11 1075.09 1070.11 1067.77M1070.11 1067.77V974.255M1070.11 1067.77C1070.11 1075.09 1076.04 1081.02 1083.35 1081.02H1176.87C1184.18 1081.02 1190.11 1075.09 1190.11 1067.77M1190.11 1067.77V974.255M1190.11 1067.77C1190.11 1075.09 1196.04 1081.02 1203.35 1081.02H1296.87C1304.18 1081.02 1310.11 1075.09 1310.11 1067.77M1310.11 1067.77V974.255M1310.11 1067.77C1310.11 1075.09 1316.04 1081.02 1323.35 1081.02H1416.87C1424.19 1081.02 1430.11 1075.09 1430.11 1067.77M1430.11 1067.77V974.255M1430.11 1067.77C1430.11 1075.09 1436.04 1081.02 1443.36 1081.02H1536.87C1544.19 1081.02 1550.12 1075.09 1550.12 1067.77M1550.12 1067.77V974.255" stroke="url(#paint0_linear_269_268)" stroke-width="1.2414"/>
<path opacity="0.25" d="M1550.12 130.934V227.763C1550.12 235.076 1556.05 241.005 1563.36 241.005H1656.88C1664.2 241.005 1670.12 246.933 1670.12 254.246V347.765C1670.12 355.078 1676.05 361.006 1683.37 361.006H1776.88C1784.2 361.006 1790.13 366.935 1790.13 374.248V467.766C1790.13 475.08 1796.05 481.008 1803.37 481.008H1896.89C1904.2 481.008 1910.13 486.937 1910.13 494.25V587.768C1910.13 595.081 1916.06 601.01 1923.37 601.01H2020.2M1430.12 130.934V227.763C1430.12 235.076 1436.05 241.005 1443.36 241.005H1536.88C1544.19 241.005 1550.12 246.933 1550.12 254.246V347.765C1550.12 355.078 1556.05 361.006 1563.36 361.006H1656.88C1664.2 361.006 1670.12 366.935 1670.12 374.248V467.766C1670.12 475.08 1664.2 481.008 1656.88 481.008H1563.36C1556.05 481.008 1550.12 475.08 1550.12 467.766V372.593L1550.01 371.811C1549.12 365.813 1544.03 361.335 1537.97 361.218L1526.95 361.006H1443.36C1436.05 361.006 1430.12 366.935 1430.12 374.248V467.766C1430.12 475.08 1436.05 481.008 1443.36 481.008H1537.71L1540.85 481.218C1546.07 481.565 1550.12 485.898 1550.12 491.127V501.284M1550.12 490.939V587.768C1550.12 595.081 1556.05 601.01 1563.36 601.01H1656.88C1664.2 601.01 1670.12 606.938 1670.12 614.251V707.77C1670.12 715.083 1676.05 721.012 1683.37 721.012H1776.88C1784.2 721.012 1790.13 726.94 1790.13 734.253V827.772C1790.13 835.085 1796.05 841.013 1803.37 841.013H1896.89C1904.2 841.013 1910.13 846.942 1910.13 854.255V947.773C1910.13 955.086 1916.06 961.015 1923.37 961.015H2020.2" stroke="url(#paint1_linear_269_268)" stroke-opacity="0.8" stroke-width="1.5"/>
<rect opacity="0.03" x="1551.35" y="122.153" width="118.197" height="119.182" rx="11.8197" fill="url(#paint2_linear_269_268)"/>
<rect opacity="0.03" x="1311.01" y="721.019" width="119.182" height="119.182" rx="11.8197" fill="url(#paint3_linear_269_268)"/>
<path opacity="0.25" d="M470.076 130.934V227.763C470.076 235.076 464.148 241.005 456.835 241.005H363.316C356.003 241.005 350.075 246.933 350.075 254.246V347.765C350.075 355.078 344.146 361.006 336.833 361.006H243.315C236.001 361.006 230.073 366.935 230.073 374.248V467.766C230.073 475.08 224.145 481.008 216.831 481.008H123.313C116 481.008 110.071 486.937 110.071 494.25V587.768C110.071 595.081 104.143 601.01 96.8297 601.01H0.000684694M590.078 130.934V227.763C590.078 235.076 584.15 241.005 576.837 241.005H483.318C476.005 241.005 470.076 246.933 470.076 254.246V347.765C470.076 355.078 464.148 361.006 456.835 361.006H363.316C356.003 361.006 350.075 366.935 350.075 374.248V467.766C350.075 475.08 356.003 481.008 363.316 481.008H456.835C464.148 481.008 470.076 475.08 470.076 467.766V372.593L470.192 371.811C471.081 365.813 476.172 361.335 482.234 361.218L493.249 361.006H576.837C584.15 361.006 590.078 366.935 590.078 374.248V467.766C590.078 475.08 584.15 481.008 576.837 481.008H482.49L479.347 481.218C474.13 481.565 470.076 485.898 470.076 491.127V501.284M470.076 490.939V587.768C470.076 595.081 464.148 601.01 456.835 601.01H363.316C356.003 601.01 350.075 606.938 350.075 614.251V707.77C350.075 715.083 344.146 721.012 336.833 721.012H243.315C236.001 721.012 230.073 726.94 230.073 734.253V827.772C230.073 835.085 224.145 841.013 216.831 841.013H123.313C116 841.013 110.071 846.942 110.071 854.255V947.773C110.071 955.086 104.143 961.015 96.8297 961.015H0.000684694" stroke="url(#paint4_linear_269_268)" stroke-opacity="0.8" stroke-width="1.5"/>
<g filter="url(#filter0_d_269_268)">
<rect x="349.516" y="602" width="120" height="119" rx="11.8197" fill="url(#paint5_linear_269_268)" fill-opacity="0.03" shape-rendering="crispEdges"/>
</g>
<g filter="url(#filter1_d_269_268)">
<rect x="470.512" y="122" width="119" height="119" rx="11.8197" fill="url(#paint6_linear_269_268)" fill-opacity="0.03" shape-rendering="crispEdges"/>
</g>
<g filter="url(#filter2_d_269_268)">
<rect x="230.492" y="359.532" width="119.182" height="119.182" rx="11.8197" fill="url(#paint7_linear_269_268)" fill-opacity="0.03" shape-rendering="crispEdges"/>
</g>
<g filter="url(#filter3_d_269_268)">
<path d="M1310.51 253.82C1310.51 247.292 1315.8 242 1322.33 242H1417.69C1424.22 242 1429.51 247.292 1429.51 253.82V349.18C1429.51 355.708 1424.22 361 1417.69 361H1322.33C1315.8 361 1310.51 355.708 1310.51 349.18V253.82Z" fill="url(#paint8_linear_269_268)" fill-opacity="0.03" shape-rendering="crispEdges"/>
</g>
<rect x="1431.51" y="480" width="119" height="119" rx="11.8197" fill="url(#paint9_linear_269_268)" fill-opacity="0.03"/>
<defs>
<filter id="filter0_d_269_268" x="329.516" y="600" width="160" height="159" filterUnits="userSpaceOnUse" color-interpolation-filters="sRGB">
<feFlood flood-opacity="0" result="BackgroundImageFix"/>
<feColorMatrix in="SourceAlpha" type="matrix" values="0 0 0 0 0 0 0 0 0 0 0 0 0 0 0 0 0 0 127 0" result="hardAlpha"/>
<feOffset dy="18"/>
<feGaussianBlur stdDeviation="10"/>
<feComposite in2="hardAlpha" operator="out"/>
<feColorMatrix type="matrix" values="0 0 0 0 0.787386 0 0 0 0 0.787386 0 0 0 0 0.787386 0 0 0 0.15 0"/>
<feBlend mode="normal" in2="BackgroundImageFix" result="effect1_dropShadow_269_268"/>
<feBlend mode="normal" in="SourceGraphic" in2="effect1_dropShadow_269_268" result="shape"/>
</filter>
<filter id="filter1_d_269_268" x="450.512" y="120" width="159" height="159" filterUnits="userSpaceOnUse" color-interpolation-filters="sRGB">
<feFlood flood-opacity="0" result="BackgroundImageFix"/>
<feColorMatrix in="SourceAlpha" type="matrix" values="0 0 0 0 0 0 0 0 0 0 0 0 0 0 0 0 0 0 127 0" result="hardAlpha"/>
<feOffset dy="18"/>
<feGaussianBlur stdDeviation="10"/>
<feComposite in2="hardAlpha" operator="out"/>
<feColorMatrix type="matrix" values="0 0 0 0 0.787386 0 0 0 0 0.787386 0 0 0 0 0.787386 0 0 0 0.15 0"/>
<feBlend mode="normal" in2="BackgroundImageFix" result="effect1_dropShadow_269_268"/>
<feBlend mode="normal" in="SourceGraphic" in2="effect1_dropShadow_269_268" result="shape"/>
</filter>
<filter id="filter2_d_269_268" x="210.492" y="357.532" width="159.184" height="159.182" filterUnits="userSpaceOnUse" color-interpolation-filters="sRGB">
<feFlood flood-opacity="0" result="BackgroundImageFix"/>
<feColorMatrix in="SourceAlpha" type="matrix" values="0 0 0 0 0 0 0 0 0 0 0 0 0 0 0 0 0 0 127 0" result="hardAlpha"/>
<feOffset dy="18"/>
<feGaussianBlur stdDeviation="10"/>
<feComposite in2="hardAlpha" operator="out"/>
<feColorMatrix type="matrix" values="0 0 0 0 0.787386 0 0 0 0 0.787386 0 0 0 0 0.787386 0 0 0 0.15 0"/>
<feBlend mode="normal" in2="BackgroundImageFix" result="effect1_dropShadow_269_268"/>
<feBlend mode="normal" in="SourceGraphic" in2="effect1_dropShadow_269_268" result="shape"/>
</filter>
<filter id="filter3_d_269_268" x="1290.51" y="240" width="159" height="159" filterUnits="userSpaceOnUse" color-interpolation-filters="sRGB">
<feFlood flood-opacity="0" result="BackgroundImageFix"/>
<feColorMatrix in="SourceAlpha" type="matrix" values="0 0 0 0 0 0 0 0 0 0 0 0 0 0 0 0 0 0 127 0" result="hardAlpha"/>
<feOffset dy="18"/>
<feGaussianBlur stdDeviation="10"/>
<feComposite in2="hardAlpha" operator="out"/>
<feColorMatrix type="matrix" values="0 0 0 0 0.787386 0 0 0 0 0.787386 0 0 0 0 0.787386 0 0 0 0.15 0"/>
<feBlend mode="normal" in2="BackgroundImageFix" result="effect1_dropShadow_269_268"/>
<feBlend mode="normal" in="SourceGraphic" in2="effect1_dropShadow_269_268" result="shape"/>
</filter>
<linearGradient id="paint0_linear_269_268" x1="950.117" y1="30.0568" x2="950.117" y2="962.338" gradientUnits="userSpaceOnUse">
<stop stop-color="#F0F0F0" stop-opacity="0"/>
<stop offset="0.484375" stop-color="#F0F0F0"/>
<stop offset="1" stop-color="#F0F0F0" stop-opacity="0"/>
</linearGradient>
<linearGradient id="paint1_linear_269_268" x1="1488.19" y1="149.5" x2="1759.19" y2="742.5" gradientUnits="userSpaceOnUse">
<stop stop-color="#F7F7F7" stop-opacity="0"/>
<stop offset="0.413853" stop-color="#CBCBCB" stop-opacity="0.8"/>
<stop offset="1" stop-color="#F6E54F" stop-opacity="0"/>
</linearGradient>
<linearGradient id="paint2_linear_269_268" x1="1610.45" y1="122.153" x2="1610.45" y2="241.335" gradientUnits="userSpaceOnUse">
<stop stop-color="white"/>
<stop offset="1" stop-color="white" stop-opacity="0"/>
</linearGradient>
<linearGradient id="paint3_linear_269_268" x1="1370.6" y1="721.019" x2="1370.6" y2="840.201" gradientUnits="userSpaceOnUse">
<stop stop-color="white"/>
<stop offset="1" stop-color="white" stop-opacity="0"/>
</linearGradient>
<linearGradient id="paint4_linear_269_268" x1="532.012" y1="149.5" x2="261.012" y2="742.5" gradientUnits="userSpaceOnUse">
<stop stop-color="#F7F7F7" stop-opacity="0"/>
<stop offset="0.413853" stop-color="#CBCBCB" stop-opacity="0.8"/>
<stop offset="1" stop-color="#F6E54F" stop-opacity="0"/>
</linearGradient>
<linearGradient id="paint5_linear_269_268" x1="409.516" y1="602" x2="409.516" y2="721" gradientUnits="userSpaceOnUse">
<stop stop-color="white"/>
<stop offset="1" stop-color="white" stop-opacity="0"/>
</linearGradient>
<linearGradient id="paint6_linear_269_268" x1="530.012" y1="122" x2="530.012" y2="241" gradientUnits="userSpaceOnUse">
<stop stop-color="white"/>
<stop offset="1" stop-color="white" stop-opacity="0"/>
</linearGradient>
<linearGradient id="paint7_linear_269_268" x1="290.083" y1="359.532" x2="290.083" y2="478.715" gradientUnits="userSpaceOnUse">
<stop stop-color="white"/>
<stop offset="1" stop-color="white" stop-opacity="0"/>
</linearGradient>
<linearGradient id="paint8_linear_269_268" x1="1370.01" y1="242" x2="1370.01" y2="361" gradientUnits="userSpaceOnUse">
<stop stop-color="white"/>
<stop offset="1" stop-color="white" stop-opacity="0"/>
</linearGradient>
<linearGradient id="paint9_linear_269_268" x1="1491.01" y1="480" x2="1491.01" y2="599" gradientUnits="userSpaceOnUse">
<stop stop-color="white"/>
<stop offset="1" stop-color="white" stop-opacity="0"/>
</linearGradient>
</defs>
</svg>
