<svg width="16" height="16" viewBox="0 0 16 16" fill="none" xmlns="http://www.w3.org/2000/svg">
<path d="M15.5 2.16667V13.8333C15.5 14.7538 14.7538 15.5 13.8333 15.5H10.7083C10.4782 15.5 10.2917 15.3135 10.2917 15.0833V10.0833H12.2417C12.4397 10.0834 12.6104 9.94403 12.65 9.75L12.95 8.25C12.9624 8.18941 12.9472 8.12644 12.9086 8.07815C12.8699 8.02985 12.8118 8.00122 12.75 8H10.2917V5.29167C10.2917 5.17661 10.3849 5.08333 10.5 5.08333H12.5833C12.8135 5.08333 13 4.89679 13 4.66667V3.41667C13 3.18655 12.8135 3 12.5833 3H10.5C9.11929 3 8 4.11929 8 5.5V8H6.975C6.74488 8 6.55833 8.18655 6.55833 8.41667V9.66667C6.55833 9.89679 6.74488 10.0833 6.975 10.0833H8V15.0833C8 15.3135 7.81345 15.5 7.58333 15.5H2.16667C1.24619 15.5 0.5 14.7538 0.5 13.8333V2.16667C0.5 1.24619 1.24619 0.5 2.16667 0.5H13.8333C14.7538 0.5 15.5 1.24619 15.5 2.16667Z" fill="#606060"/>
</svg>
