<svg width="20" height="21" viewBox="0 0 20 21" fill="none" xmlns="http://www.w3.org/2000/svg">
<g clip-path="url(#clip0_4_1394)">
<path d="M19.2441 8.76138L11.0863 8.76099C10.7261 8.76099 10.4341 9.05294 10.4341 9.41317V12.0192C10.4341 12.3794 10.7261 12.6714 11.0863 12.6714H15.6803C15.1772 13.9769 14.2383 15.0702 13.0404 15.7649L14.9993 19.1559C18.1415 17.3386 19.9993 14.15 19.9993 10.5805C19.9993 10.0723 19.9618 9.70895 19.8869 9.29985C19.8299 8.98903 19.5601 8.76138 19.2441 8.76138Z" fill="#03A9F4"/>
<path d="M10.0015 16.5871C7.75332 16.5871 5.79066 15.3587 4.73656 13.541L1.3457 15.4955C3.07129 18.4862 6.30387 20.5001 10.0015 20.5001C11.8155 20.5001 13.5271 20.0117 15.0015 19.1606V19.1559L13.0427 15.7649C12.1466 16.2846 11.1098 16.5871 10.0015 16.5871Z" fill="#00AC26"/>
<path d="M15 19.1606V19.1559L13.0411 15.7649C12.1451 16.2845 11.1083 16.587 10 16.587V20.5001C11.8139 20.5001 13.5256 20.0117 15 19.1606Z" fill="#00AC26"/>
<path d="M3.91305 10.5C3.91305 9.39183 4.21547 8.35507 4.73504 7.45909L1.34418 5.50464C0.488359 6.97444 0 8.6814 0 10.5C0 12.3186 0.488359 14.0255 1.34418 15.4953L4.73504 13.5409C4.21547 12.6449 3.91305 11.6082 3.91305 10.5Z" fill="#ECB22E"/>
<path d="M10.0015 4.41305C11.4676 4.41305 12.8142 4.93398 13.8661 5.80051C14.1255 6.01426 14.5027 5.99883 14.7404 5.76113L16.5869 3.91465C16.8566 3.64496 16.8373 3.20352 16.5493 2.95359C14.787 1.42473 12.494 0.5 10.0015 0.5C6.30387 0.5 3.07129 2.51395 1.3457 5.50465L4.73656 7.4591C5.79066 5.64141 7.75332 4.41305 10.0015 4.41305Z" fill="#FF7262"/>
<path d="M13.8645 5.80051C14.124 6.01426 14.5012 5.99883 14.7389 5.76113L16.5854 3.91465C16.855 3.64496 16.8358 3.20352 16.5477 2.95359C14.7854 1.42469 12.4925 0.5 10 0.5V4.41305C11.466 4.41305 12.8127 4.93398 13.8645 5.80051Z" fill="#F24E1E"/>
</g>
<defs>
<clipPath id="clip0_4_1394">
<rect width="20" height="20" fill="white" transform="translate(0 0.5)"/>
</clipPath>
</defs>
</svg>
