<svg width="17" height="17" viewBox="0 0 17 17" fill="none" xmlns="http://www.w3.org/2000/svg">
<path d="M8.5 11.625C10.2259 11.625 11.625 10.2259 11.625 8.5C11.625 6.77411 10.2259 5.375 8.5 5.375C6.77411 5.375 5.375 6.77411 5.375 8.5C5.375 10.2259 6.77411 11.625 8.5 11.625Z" stroke="#606060" stroke-width="2" stroke-miterlimit="10"/>
<path d="M12.25 1H4.75C2.67893 1 1 2.67893 1 4.75V12.25C1 14.3211 2.67893 16 4.75 16H12.25C14.3211 16 16 14.3211 16 12.25V4.75C16 2.67893 14.3211 1 12.25 1Z" stroke="#606060" stroke-width="2" stroke-linecap="round" stroke-linejoin="round"/>
<path d="M12.5625 5.375C13.0803 5.375 13.5 4.95527 13.5 4.4375C13.5 3.91973 13.0803 3.5 12.5625 3.5C12.0447 3.5 11.625 3.91973 11.625 4.4375C11.625 4.95527 12.0447 5.375 12.5625 5.375Z" fill="#606060"/>
</svg>
