<svg width="16" height="16" viewBox="0 0 16 16" fill="none" xmlns="http://www.w3.org/2000/svg">
<path fill-rule="evenodd" clip-rule="evenodd" d="M2.16667 0.5H13.8333C14.7538 0.5 15.5 1.24619 15.5 2.16667V13.8333C15.5 14.7538 14.7538 15.5 13.8333 15.5H2.16667C1.24619 15.5 0.5 14.7538 0.5 13.8333V2.16667C0.5 1.24619 1.24619 0.5 2.16667 0.5ZM4.66667 13C4.89679 13 5.08333 12.8135 5.08333 12.5833V6.75C5.08333 6.51988 4.89679 6.33333 4.66667 6.33333H3.41667C3.18655 6.33333 3 6.51988 3 6.75V12.5833C3 12.8135 3.18655 13 3.41667 13H4.66667ZM4.04167 5.5C3.35131 5.5 2.79167 4.94036 2.79167 4.25C2.79167 3.55964 3.35131 3 4.04167 3C4.73202 3 5.29167 3.55964 5.29167 4.25C5.29167 4.94036 4.73202 5.5 4.04167 5.5ZM12.5833 12.9996C12.8135 12.9996 13 12.8131 13 12.583V8.74962C13.027 7.42527 12.048 6.29505 10.7333 6.13296C9.81419 6.04899 8.92355 6.47829 8.41667 7.24962V6.74962C8.41667 6.5195 8.23012 6.33296 8 6.33296H6.75C6.51988 6.33296 6.33333 6.5195 6.33333 6.74962V12.583C6.33333 12.8131 6.51988 12.9996 6.75 12.9996H8C8.23012 12.9996 8.41667 12.8131 8.41667 12.583V9.45796C8.41667 8.7676 8.97631 8.20796 9.66667 8.20796C10.357 8.20796 10.9167 8.7676 10.9167 9.45796V12.583C10.9167 12.8131 11.1032 12.9996 11.3333 12.9996H12.5833Z" fill="#606060"/>
</svg>
